<svg width="30" height="30" viewBox="0 0 30 30" fill="none" xmlns="http://www.w3.org/2000/svg">
<path d="M15.0045 0C19.1449 0 22.8983 1.68317 25.6166 4.39244C28.3348 7.11071 30.009 10.8551 30.009 15.0045C30.009 19.1449 28.3258 22.8983 25.6166 25.6166C22.8983 28.3348 19.1539 30.009 15.0045 30.009C10.8641 30.009 7.11071 28.3258 4.39244 25.6166C1.67417 22.8983 0 19.1539 0 15.0045C0 10.8641 1.68317 7.11071 4.39244 4.39244C7.11071 1.67417 10.8551 0 15.0045 0ZM16.6337 10.234H19.3429V6.9847H16.6337C14.5455 6.9847 12.8443 8.68587 12.8443 10.7741V12.4032H10.6751V15.6526H12.8443V24.3204H16.0936V15.6526H18.8029L19.3429 12.4032H16.0936V10.7741C16.0936 10.477 16.3456 10.234 16.6337 10.234ZM24.8515 5.16652C22.3312 2.64626 18.8569 1.08911 15.0135 1.08911C11.1701 1.08911 7.68677 2.64626 5.17552 5.16652C2.65527 7.68677 1.09811 11.1611 1.09811 15.0045C1.09811 18.8479 2.65527 22.3312 5.17552 24.8425C7.69577 27.3627 11.1701 28.9199 15.0135 28.9199C18.8569 28.9199 22.3402 27.3627 24.8515 24.8425C27.3717 22.3222 28.9289 18.8479 28.9289 15.0045C28.9289 11.1611 27.3717 7.67777 24.8515 5.16652Z" fill="white"/>
</svg>
