<svg width="77" height="58" viewBox="0 0 77 58" fill="none" xmlns="http://www.w3.org/2000/svg">
<path fill-rule="evenodd" clip-rule="evenodd" d="M0 24.6461H15.5592V52.3033H0V24.6461ZM51.2143 0C58.8591 0 65.069 6.19126 65.069 13.8411C65.069 21.4785 58.8717 27.6822 51.2143 27.6822C43.5694 27.6822 37.3595 21.491 37.3595 13.8411C37.3658 6.20378 43.5632 0 51.2143 0ZM52.8498 17.2591C52.8498 16.7396 52.7245 16.3326 52.4675 16.0384C52.2106 15.7442 51.7594 15.4625 51.114 15.2058C50.4749 14.9429 49.8796 14.68 49.3344 14.4108C48.7892 14.1416 48.3193 13.8286 47.9245 13.4718C47.5297 13.1212 47.2289 12.708 47.0159 12.2448C46.8091 11.7815 46.7026 11.2181 46.7026 10.5546C46.7026 9.44652 47.0785 8.53254 47.8242 7.81889C48.5699 7.09897 49.5662 6.67955 50.8132 6.56686V5.0707H52.3798V6.59816C53.5767 6.77345 54.5229 7.268 55.2059 8.07555C55.8889 8.88311 56.2398 9.90977 56.2398 11.1555H52.9124C52.9124 10.4732 52.7808 9.95359 52.5177 9.58424C52.2545 9.22115 51.8848 9.03335 51.396 9.03335C50.9636 9.03335 50.6252 9.17107 50.3871 9.44026C50.149 9.70944 50.0299 10.0851 50.0299 10.5671C50.0299 11.0554 50.1678 11.4372 50.4435 11.7189C50.7192 12.0069 51.1641 12.2761 51.772 12.539C52.3861 12.7957 52.9563 13.0649 53.5015 13.3466C54.0404 13.6283 54.5103 13.9413 54.9051 14.2919C55.2999 14.6487 55.6069 15.0618 55.8263 15.5314C56.0518 16.0009 56.1646 16.5705 56.1646 17.2278C56.1646 18.3484 55.8075 19.2624 55.0994 19.9698C54.385 20.6772 53.42 21.0903 52.1918 21.2093V22.599H50.6315V21.1968C49.2028 21.0465 48.0999 20.5582 47.3417 19.7256C46.5772 18.8993 46.195 17.8038 46.195 16.4453H49.5036C49.5036 17.1965 49.6665 17.76 49.9986 18.1543C50.3245 18.5425 50.8007 18.7365 51.4085 18.7365C51.8534 18.7365 52.2043 18.6051 52.4613 18.3359C52.7182 18.0855 52.8498 17.7161 52.8498 17.2591ZM18.6923 49.9808V26.8622H29.1006C33.512 27.6509 37.9235 30.0423 42.335 32.8155H50.4185C54.078 33.0346 55.9954 36.7406 52.4362 39.1758C49.6038 41.2542 45.8629 41.1352 42.0279 40.7909C39.3835 40.6595 39.2708 44.209 42.0279 44.2215C42.9867 44.2966 44.0269 44.0712 44.9355 44.0712C49.7229 44.065 53.6581 43.151 56.0706 39.3761L57.28 36.5528L69.305 30.5995C75.3206 28.6213 79.5942 34.9064 75.164 39.2822C66.4539 45.6112 57.5244 50.8196 48.3882 55.0264C41.7522 59.058 35.1162 58.9202 28.4865 55.0264L18.6923 49.9808Z" fill="#E0C334"/>
</svg>
