<svg width="67" height="67" viewBox="0 0 67 67" fill="none" xmlns="http://www.w3.org/2000/svg">
<g clip-path="url(#clip0_8_465)">
<path d="M19.5416 46.9034C18.7711 46.9034 18.1458 47.5288 18.1458 48.2993C18.1458 49.0698 18.7711 49.6951 19.5416 49.6951C20.3121 49.6951 20.9375 49.0698 20.9375 48.2993C20.9375 47.5288 20.3121 46.9034 19.5416 46.9034Z" fill="#E0C334"/>
<path d="M53.0416 16.1951C52.2711 16.1951 51.6458 16.8205 51.6458 17.591C51.6458 18.3615 52.2711 18.9869 53.0416 18.9869C53.8121 18.9869 54.4375 18.3615 54.4375 17.591C54.4375 16.8205 53.8121 16.1951 53.0416 16.1951Z" fill="#E0C334"/>
<path d="M62.8433 14.802H60.3615C61.0539 13.8054 61.9863 12.3314 62.6004 11.3488C62.8349 10.9691 62.8768 10.5001 62.7093 10.0869C62.5418 9.67364 62.1873 9.36665 61.7545 9.25777C57.8629 8.28352 53.7648 9.4979 51.0485 12.4235C50.5628 12.9484 49.7895 13.7691 48.804 14.7993H9.77088C4.38287 14.7993 0 19.1821 0 24.5701C0 25.3406 0.625377 25.966 1.39588 25.966H34.8959C35.6664 25.966 36.2805 25.3854 36.2834 24.6149C36.3029 24.5758 36.7551 23.8639 40.228 23.3503C32.3276 30.9045 21.5434 40.3096 11.7725 45.7171C10.05 46.6719 8.84963 48.3274 8.4895 50.2591C8.12663 52.1938 8.643 54.1703 9.90488 55.6834L9.9105 55.6918C11.2059 57.2468 13.0763 58.073 14.9746 58.073C16.0885 58.073 17.2108 57.7883 18.2325 57.1964C26.7388 52.3026 42.9806 39.2879 54.9066 22.9008C56.3779 22.9343 57.7988 22.9761 59.083 23.0124C60.49 23.057 61.7463 23.0961 62.7708 23.1129H62.8434C63.9405 23.1129 64.9734 22.6914 65.7579 21.9236C66.5591 21.1336 67.0001 20.0811 67.0001 18.9589C67 16.6669 65.1351 14.802 62.8433 14.802ZM33.8741 23.1743H2.93125C3.58175 19.9918 6.3985 17.5909 9.77088 17.5909H46.0821C45.2558 18.4284 44.3764 19.3078 43.4524 20.2179C39.262 20.4831 35.1164 21.0916 33.8741 23.1743ZM56.5536 15.4553C55.409 17.281 54.2338 19.037 53.0585 20.6701C53.0529 20.6758 53.0558 20.6869 53.0501 20.6925C41.3641 36.9874 25.2366 49.9491 16.8394 54.7815C15.2481 55.6971 13.2381 55.3286 12.0545 53.9049L12.0489 53.8965C11.323 53.0228 11.0244 51.8865 11.2338 50.7754C11.4431 49.6643 12.1326 48.7095 13.1265 48.1596C29.8374 38.9109 49.354 18.353 53.0948 14.3246C54.6525 12.6469 56.8216 11.7256 59.0605 11.72C58.3932 12.7501 57.8099 13.6184 57.6367 13.8138C57.5557 13.8948 57.486 13.9813 57.4274 14.079C57.1483 14.5424 56.8439 14.9919 56.5564 15.4525C56.5564 15.4553 56.5536 15.4553 56.5536 15.4553ZM63.8008 19.9275C63.5355 20.1871 63.1894 20.2736 62.8181 20.3184C61.8048 20.3016 60.5596 20.2625 59.1666 20.2206C58.424 20.2011 57.6396 20.176 56.8244 20.1536C56.8327 20.1425 56.8384 20.1313 56.8468 20.1201C57.4106 19.291 57.955 18.4508 58.4939 17.6076C58.4995 17.602 58.5023 17.5936 58.5079 17.5881H62.8434C63.5971 17.5881 64.2085 18.1995 64.2085 18.9533C64.2084 19.3245 64.0631 19.6679 63.8008 19.9275Z" fill="#E0C334"/>
<path d="M39.0834 31.5493C38.3129 31.5493 37.6875 32.1746 37.6875 32.9451C37.6875 33.7156 38.3129 34.341 39.0834 34.341C39.8539 34.341 40.4793 33.7156 40.4793 32.9451C40.4791 32.1746 39.8539 31.5493 39.0834 31.5493Z" fill="#E0C334"/>
</g>
<defs>
<clipPath id="clip0_8_465">
<rect width="67" height="67" fill="white"/>
</clipPath>
</defs>
</svg>
