<svg width="71" height="71" viewBox="0 0 71 71" fill="none" xmlns="http://www.w3.org/2000/svg">
<g clip-path="url(#clip0_8_455)">
<path d="M32.2349 34.2169C32.3618 34.9914 32.8064 35.6776 33.4612 36.1101L45.0868 43.7884C46.0011 44.3923 47.0731 44.1089 48.0335 43.5559C48.4267 43.3296 50.4646 42.0635 57.2643 37.5701L67.1493 39.0363C68.3859 39.2198 69.5386 38.3655 69.7221 37.1281C69.9056 35.8907 69.0514 34.7389 67.814 34.5553L57.0721 32.9621C56.5203 32.8801 55.9576 33.0049 55.4922 33.3122L50.7862 36.4181L50.2041 35.9644C48.632 36.9668 47.6621 37.5854 45.9891 38.6523C45.0524 39.2497 43.8681 39.1476 43.0487 38.4864L37.1885 33.7432L43.8445 36.6883C44.4211 36.9434 45.0885 36.8944 45.6231 36.5537L51.9813 32.499C52.8602 31.9385 53.1183 30.7715 52.5578 29.8925C51.9975 29.0136 50.8305 28.7556 49.9515 29.316L44.4467 32.8267L38.7161 30.2911L43.5895 31.0412L43.754 30.9362L39.6873 27.7658C38.4614 26.8102 36.693 27.0292 35.7375 28.255L32.7933 32.0317C32.3101 32.6503 32.108 33.4425 32.2349 34.2169Z" fill="#E0C334"/>
<path d="M25.483 28.0777C25.4865 27.8882 25.5203 27.6983 25.585 27.5141C25.7439 27.0617 26.0696 26.698 26.5019 26.4904L28.1923 25.6786C29.103 25.2411 30.1695 25.6479 30.5883 26.5199L31.8813 29.2122C31.9278 29.3088 31.963 29.4079 31.9907 29.5078C32.1839 29.338 32.3646 29.1486 32.5286 28.9382C33.9432 27.1236 33.619 24.5057 31.8044 23.0911C29.9898 21.6765 27.372 22.0007 25.9573 23.8152C24.9728 25.0781 24.8314 26.7298 25.4476 28.0944L25.483 28.0777Z" fill="#E0C334"/>
<path d="M68.3707 46.7337C69.3891 47.1024 70.5138 46.5757 70.8824 45.5572C71.2512 44.5389 70.7245 43.4143 69.7061 43.0455L59.7125 39.4272C59.139 39.2197 58.5022 39.2904 57.9887 39.6186L46.6613 46.8581L27.5865 34.3127C26.6814 33.7175 25.4655 33.9687 24.8702 34.8736C24.275 35.7786 24.5262 36.9945 25.4312 37.5898L45.5684 50.8338C45.8952 51.0488 46.2706 51.1564 46.646 51.1564C47.0129 51.1564 47.3799 51.0536 47.7022 50.8478L48.8579 50.1092L52.8748 58.6067H46.633C45.5499 58.6067 44.672 59.4847 44.672 60.5679C44.672 61.651 45.55 62.5291 46.633 62.5291H68.7261C69.8092 62.5291 70.6871 61.6511 70.6871 60.5679C70.6871 59.4847 69.8091 58.6067 68.7261 58.6067H63.3129L57.269 44.7337L59.2863 43.4444L68.3707 46.7337Z" fill="#E0C334"/>
<path d="M28.0133 30.28L28.3215 30.9217C28.3883 31.0608 28.5544 31.1182 28.6924 31.052L30.3827 30.2402C30.5212 30.1736 30.5794 30.0077 30.513 29.8692L29.22 27.1769C29.1533 27.0382 28.9874 26.9803 28.8491 27.0466L27.1586 27.8585C27.0203 27.925 26.962 28.0909 27.0283 28.2294L27.3364 28.8711L26.2249 29.4049C26.4197 29.9044 26.5161 30.4486 26.4922 31.0103L28.0133 30.28Z" fill="#E0C334"/>
<path d="M12.8697 17.2857C15.3039 17.2857 17.2772 15.3125 17.2772 12.8783C17.2772 10.4441 15.3039 8.47083 12.8697 8.47083C10.4356 8.47083 8.46228 10.4441 8.46228 12.8783C8.46228 15.3125 10.4356 17.2857 12.8697 17.2857Z" fill="#E0C334"/>
<path d="M22.8302 28.7272L14.0223 27.4302L10.1454 22.5302L14.198 25.6004L14.987 25.7166L15.2156 22.9348C15.3615 21.1594 14.0406 19.6017 12.2652 19.4558L6.53236 18.9845C4.757 18.8385 3.19929 20.1596 3.05342 21.9349L2.03476 38.4563L3.38577 47.265L0.0922166 59.2785C-0.283047 60.6476 0.522434 62.0616 1.89151 62.437C3.26135 62.8123 4.67472 62.006 5.04999 60.6377L8.48849 48.0963C8.58388 47.7482 8.60503 47.3839 8.55023 47.027L7.30218 38.8893L8.30217 38.9715L11.3682 47.3312L8.80694 59.4258C8.46888 61.0223 9.68636 62.5292 11.324 62.5292C12.5125 62.5292 13.5799 61.7001 13.836 60.4909L16.5504 47.673C16.6504 47.2003 16.6154 46.709 16.449 46.2555L13.8755 39.2389L14.334 33.6621L12.2904 33.3611C11.6034 33.26 10.3543 33.2322 9.75027 31.8939L6.78598 25.188L11.19 30.7545C11.5287 31.1825 12.0179 31.465 12.5577 31.5445L22.2061 32.9653C23.378 33.1376 24.465 32.3273 24.6372 31.1583C24.8096 29.9881 24.0004 28.8996 22.8302 28.7272Z" fill="#E0C334"/>
</g>
<defs>
<clipPath id="clip0_8_455">
<rect width="71" height="71" fill="white"/>
</clipPath>
</defs>
</svg>
