<svg width="30" height="30" viewBox="0 0 30 30" fill="none" xmlns="http://www.w3.org/2000/svg">
<path d="M15 0C19.1392 0 22.8914 1.68266 25.6089 4.39112C28.3263 7.10858 30 10.8518 30 15C30 19.1392 28.3173 22.8914 25.6089 25.6089C22.8914 28.3263 19.1482 30 15 30C10.8608 30 7.10858 28.3173 4.39112 25.6089C1.67367 22.8914 0 19.1482 0 15C0 10.8608 1.68266 7.10858 4.39112 4.39112C7.10858 1.67367 10.8518 0 15 0ZM18.2034 6.80264C18.4733 9.13317 19.769 10.5189 22.0276 10.6629V13.2813C20.7229 13.4073 19.5711 12.9754 18.2394 12.1746V17.0606C18.2394 23.2783 11.4637 25.222 8.73725 20.7678C6.9826 17.9064 8.05339 12.8674 13.6773 12.6695V15.4319C13.2454 15.5039 12.7954 15.6119 12.3725 15.7469C11.1218 16.1698 10.4199 16.9616 10.6179 18.3563C10.9958 21.0288 15.9088 21.8206 15.4949 16.5927V6.80264H18.2034ZM24.835 5.15597C22.3155 2.63647 18.8422 1.07978 15 1.07978C11.1578 1.07978 7.67546 2.63647 5.16497 5.15597C2.64547 7.67546 1.08878 11.1488 1.08878 14.991C1.08878 18.8332 2.64547 22.3155 5.16497 24.826C7.68446 27.3455 11.1578 28.9022 15 28.9022C18.8422 28.9022 22.3245 27.3455 24.835 24.826C27.3545 22.3065 28.9112 18.8332 28.9112 14.991C28.9112 11.1488 27.3545 7.66647 24.835 5.15597Z" fill="white"/>
</svg>
