<svg width="23" height="23" viewBox="0 0 23 23" fill="none" xmlns="http://www.w3.org/2000/svg">
<path d="M21.4333 15.2958C20.2649 14.3568 19.1932 13.9004 18.1568 13.9004C16.6576 13.9004 15.5781 14.8541 14.6008 15.8311C14.4884 15.9436 14.3523 15.996 14.1726 15.996C13.349 15.9961 11.9002 14.9647 9.86636 12.9307C7.47366 10.5378 6.56902 9.0159 7.17732 8.40736C8.82635 6.75889 9.34115 5.10633 6.81637 1.96636C5.91253 0.84142 5.02821 0.294678 4.11292 0.294678C2.87855 0.294678 1.9402 1.28138 1.11233 2.152C0.969196 2.3025 0.833992 2.44466 0.701429 2.57723C-0.234276 3.51285 -0.233796 5.55365 0.70279 8.03665C1.73039 10.761 3.75934 13.7246 6.41596 16.3816C8.47045 18.436 10.7058 20.0962 12.8806 21.2109C14.7794 22.1841 16.6211 22.7056 18.0665 22.7056C18.0667 22.7056 18.0668 22.7056 18.0671 22.7056C18.9717 22.7056 19.7064 22.5083 20.1917 22.107C21.1774 21.292 23.0122 19.7824 22.9999 17.9893C22.9932 17.0276 22.4662 16.1263 21.4333 15.2958Z" fill="white"/>
</svg>
