<svg width="30" height="30" viewBox="0 0 30 30" fill="none" xmlns="http://www.w3.org/2000/svg">
<path d="M27.9564 19.9509C26.4325 18.7262 25.0347 18.1309 23.6828 18.1309C21.7273 18.1309 20.3193 19.3748 19.0445 20.6492C18.8979 20.7959 18.7204 20.8643 18.486 20.8643C17.4118 20.8644 15.522 19.5191 12.8692 16.866C9.74826 13.7449 8.56829 11.7598 9.36172 10.966C11.5126 8.81585 12.1841 6.66035 8.89092 2.56474C7.71199 1.09742 6.55854 0.384277 5.36468 0.384277C3.75463 0.384277 2.5307 1.67127 1.45086 2.80687C1.26417 3.00317 1.08782 3.18861 0.914907 3.36152C-0.305578 4.5819 -0.304951 7.24381 0.916682 10.4825C2.25703 14.036 4.90349 17.9016 8.36865 21.3673C11.0484 24.0468 13.9641 26.2123 16.8008 27.6663C19.2774 28.9358 21.6796 29.6159 23.565 29.6159C23.5652 29.6159 23.5655 29.6159 23.5658 29.6159C24.7456 29.6159 25.704 29.3585 26.337 28.8351C27.6227 27.7721 30.0159 25.803 29.9999 23.4642C29.9911 22.2098 29.3038 21.0342 27.9564 19.9509Z" fill="#E0C334"/>
</svg>
